<svg height="512pt" viewBox="-27 0 512 512" width="512pt" xmlns="http://www.w3.org/2000/svg" xmlns:xlink="http://www.w3.org/1999/xlink"><linearGradient id="a" gradientUnits="userSpaceOnUse" x1="229.1346130816" x2="229.1346130816" y1="0" y2="511.9998600304"><stop offset="0" stop-color="#2af598"/><stop offset="1" stop-color="#009efd"/></linearGradient><path d="m458.269531 326.929688-166.222656 185.070312-108.082031-102.882812 27.542968-28.933594 78.296876 74.53125 138.746093-154.480469zm-266.839843 144.441406 41.964843 39.949218h-173.472656c-33.042969 0-59.921875-26.878906-59.921875-59.921874v-391.476563c0-33.042969 26.878906-59.921875 59.921875-59.921875h203.484375l141.941406 142.667969v125.675781l-39.835937 43.777344v-141.238282h-71.015625c-33.039063 0-59.921875-26.878906-59.921875-59.917968v-71.019532h-174.652344c-11.015625 0-19.976563 8.960938-19.976563 19.976563v391.476563c0 11.015624 8.960938 19.972656 19.976563 19.972656zm103.066406-340.433594h42.917968l-62.890624-63.152344v43.179688c0 11.011718 8.960937 19.972656 19.972656 19.972656zm-214.601563 207.613281h156.789063v-39.949219h-156.789063zm245.671875-119.839843h-245.671875v39.945312h245.671875zm0 0" fill="url(#a)"/></svg>